<?xml version="1.0" encoding="UTF-8"?>
<svg id="Layer_1" data-name="Layer 1" xmlns="http://www.w3.org/2000/svg" viewBox="0 0 723.6 248.4">
  <defs>
    <style>
      .cls-1 {
        fill: #080702;
      }

      .cls-2 {
        fill: #f6c82d;
      }

      .cls-3 {
        fill: #fbcb2d;
      }

      .cls-4 {
        fill: #9e801e;
      }

      .cls-5 {
        fill: #fdce2e;
      }

      .cls-6 {
        fill: #030301;
      }

      .cls-7 {
        fill: #060501;
      }

      .cls-8 {
        fill: #090802;
      }

      .cls-9 {
        fill: #040301;
      }

      .cls-10 {
        fill: #070501;
      }

      .cls-11 {
        fill: #040401;
      }

      .cls-12 {
        fill: #f5c72c;
      }

      .cls-13 {
        fill: #030201;
      }

      .cls-14 {
        fill: #090702;
      }

      .cls-15 {
        fill: #050401;
      }

      .cls-16 {
        fill: #fbcc2d;
      }

      .cls-17 {
        fill: #f7c82d;
      }

      .cls-18 {
        fill: #070601;
      }

      .cls-19 {
        fill: #fdcd2e;
      }

      .cls-20 {
        fill: #080602;
      }
    </style>
  </defs>
  <path class="cls-19" d="M723.6,0v248.4H0V0h723.6ZM91.32,51.84c-.79-.23-4.15,0-5.28,0-.85,0-.22,2.61-.06,3.18,3.52,12.42,26.87,10.18,25.61-3.53-.47-5.13-4.05-7.3-8.63-8.41-3.51-.85-10.22-.49-10.3-5.3-.09-5.11,8.71-5.6,10.98-2.1.58.9.54,2.03,1.36,2.72h5.28c.7,0-.11-2.45-.25-2.87-4.07-12.28-27.75-7.77-22.98,6.18,2.08,6.09,9.37,5.53,14.33,7.03,2.41.73,3.92,1.63,3.96,4.45.07,5.61-9.89,6.54-12.56,2.23-.52-.83-.75-3.37-1.46-3.58ZM32.04,28.8l-.36.36v33.12l.36.36h5.76l.36-.36V29.16l-.36-.36h-5.76ZM49.2,29.04v33.24l.36.36h5.4c-.08-.24.24-.52.24-.6v-23.76c0-.06-.34-.32-.24-.6l.59.25,14.65,24.71h6l.36-.36V29.16l-.36-.36h-4.8c-.08,0-.36.32-.6.24v23.04l-.68-.4-13.06-22.58c-.51-.49-7.64-.41-7.86-.06ZM142.32,29.04c-.24.08-.52-.24-.6-.24h-24.24l-.36.36v4.56l.36.36h8.64l.36.36v28.2h6.12l.36-.36v-27.84l.36-.36h8.64l.36-.36v-4.68ZM151.08,28.8l-.36.36v33.12l.36.36h5.76l.36-.36V29.16l-.36-.36h-5.76ZM190.8,29.04c-.24.08-.52-.24-.6-.24h-24.24l-.36.36v4.56l.36.36h9v28.56h6.12l.36-.36v-27.84l.36-.36h8.64l.36-.36v-4.68ZM205.2,29.04c0-.33-5.85-.38-6.48,0v22.2c0,1.82,1,5.03,2.01,6.63,4.46,7.14,18.47,6.96,22.91-.2.56-.9,1.96-4.34,1.96-5.24v-23.28l-.36-.36h-5.52c-.08,0-.36.32-.6.24v22.2c0,.55-.64,2.84-.91,3.41-1.08,2.26-3.29,3.09-5.68,3.2-2.86.14-5.5-.72-6.55-3.55-.26-.69-.78-2.42-.78-3.06v-22.2ZM258.96,29.04h-25.2v4.68l.36.36h8.64l.36.36v27.84l.36.36h5.76l.36-.36v-28.2h9l.36-.36v-4.68ZM273.6,34.08h14.28l.36-.36v-4.56l-.36-.36h-20.16c-.08,0-.36.32-.6.24v33.24l.36.36h21.48c.3-.8.58-5.28-.36-5.28h-15v-9.36h11.4l.36-.36v-4.32l-.36-.36h-11.4v-8.88ZM36.48,87.36v-9l-.36-.36h-4.32l-.36.36v24.84h5.04v-8.76l.36-.36h27.84l.36-.36v-6l-.36-.36h-28.2ZM464.64,119.52c-.69-15.82-21.37-19.31-31.92-10.44-7.68,6.46-9.17,18.75-5.7,27.79,3.96,10.32,15.58,13.66,25.67,11.15,7.06-1.76,12.08-7.76,12.43-15.05h-7.8c-.68,1.22-.72,2.63-1.36,3.92-2.79,5.61-11.25,6.29-16.16,3.29-7.92-4.85-7.77-22.4.05-27.32,6.2-3.91,15.96-1.61,16.4,6.68h8.4ZM685.2,117.12h7.32c.52-.5.01-2.19-.19-2.93-3.88-14.17-28.67-12.15-30.15.68-1.59,13.8,9.31,12.82,18.55,15.47,2.56.73,4.89,1.67,5.18,4.66.58,6.03-4.68,7.73-9.73,7.33s-6.92-3.39-7.55-7.93h-7.56c-.15,0-.33.35-.35.58-.05.74.57,3.15.83,3.99,4.72,15.52,35.98,12.45,32.17-6.73-2.04-10.27-13.03-8.26-20.18-11.02-5.95-2.3-4.37-9.47,1.51-10.26,4.99-.67,9.3.73,10.14,6.18ZM162.72,148.08c.05-.93-.29-1.82-.55-2.69-3.99-13.32-9.11-26.35-13.12-39.68l-.49-.71c-.44-.22-8.75-.25-9.74-.13-.26.03-.53-.01-.71.25l-14.28,42.96h7.56l3.45-10.42,16.12-.04,3.35,10.45h8.4ZM200.16,135.12l-17.88-30.24h-9.48c.08.24-.24.52-.24.6v42.24l.36.36h7.32v-31.92l19.08,31.92h8.28v-43.2h-7.08l-.36.36v29.88ZM247.2,148.08v-42.84l-.36-.36h-7.68l-.36.36v42.84h8.4ZM269.88,104.88h-9.12l-.36.36v42.84h7.44v-31.92c.55-.15.75.63,1,1.04,6.21,10.14,11.94,20.62,17.96,30.88h8.64v-42.84l-.36-.36h-6.72l-.36.36v29.88c-.57.12-.39-.07-.54-.31-5.56-8.7-10.31-18.36-15.74-27.21-.3-.48-1.49-2.62-1.84-2.72ZM337.2,111.6v-6.36l-.36-.36h-31.2s-.6.56-.6.6v5.76l.36.36h11.64v36.48h8.04l.36-.36v-36.12h11.76ZM373.92,111.6v-6.36l-.36-.36h-26.16s-.6.56-.6.6v42.24l.36.36h27.72v-6.48h-19.68v-12.24h14.88c.19-1.23.57-5.03.12-6-.05-.11-.43-.48-.48-.48h-14.52v-11.28h18.72ZM385.44,105.24v42.84h8.16v-17.28h4.68l11.16,17.28h8.88l-11.52-18.36c-.07-.51.09-.29.34-.38,4.73-1.78,8.26-4.1,8.78-9.7.97-10.48-6.15-14.27-15.47-14.77-3.73-.2-10.63-.42-14.18,0-.35.04-.62.03-.83.37ZM471.36,148.08h7.68l3.27-10.57,15.94.12,3.71,10.45h8.28l-14.51-43.22-10.33.25-14.04,42.96ZM519.84,105.48v42.24l.36.36h6.96l.36-.36v-30.6l12.72,30.84c1.04.16,2.69.52,3.17-.67l11.95-30.17v30.6l.36.36h8.04v-42.84l-.36-.36h-10.32l-11.04,28.8-11.2-28.76c-3.07.24-6.97-.45-9.93-.05-.36.05-.96.24-1.07.61ZM585.12,132c8.25.27,19.2-.08,21.29-10.03,1.51-7.18-1.42-13.74-8.57-16.01-4.24-1.35-15.78-1.62-20.29-1.09-.35.04-.62.03-.83.37v42.84h8.04l.36-.36v-15.72ZM616.68,104.88l-.36.36v29.04c0,16.6,26.37,19.61,32.76,6.12.66-1.4,1.8-5.14,1.8-6.6v-28.56l-.36-.36h-7.68l-.36.36v27.36c0,1.69-.9,5.09-1.92,6.48-2.74,3.74-11.08,3.89-13.92.24-1.01-1.3-1.92-4.38-1.92-6v-28.08l-.36-.36h-7.68ZM36.48,108.96h-5.04v25.2h5.04v-8.76c0-.08.32-.36.24-.6h28.32v-6.48h-28.2l-.36-.36v-9ZM65.04,136.8l-33.57,10.83-.05,8.02,33.62,11.39v-6l-8.04-2.64v-12.5s8.04-2.75,8.04-2.75v-6.36ZM250.08,163.44h-10.68l-.36.36v42.48l.36.36h6.96l.36-.36v-30.6l12.83,30.98c.82-.15,2.23.33,2.75-.4l12.26-30.58v30.6l.36.36h7.68l.36-.36v-42.48l-.36-.36h-10.32l-11.28,28.56-10.92-28.56ZM331.68,206.64l-14.04-42.96c-.18-.26-.45-.22-.71-.25-1.02-.13-9.57-.15-9.98.12l-.19.29-13.96,42.8h7.68l3.14-10.54,16.15-.04,3.63,10.58h8.28ZM351,163.44h-9.48v43.2h7.44v-31.92l.54.31,18.54,31.61h8.52v-42.84l-.36-.36h-6.96l-.36.36v29.88l-17.88-30.24ZM397.44,163.44h-8.16v29.64c0,1.02.76,3.79,1.16,4.84,5.55,14.89,33.16,11.57,33.16-5.32v-29.16h-8.16c-.35,8.58.46,17.51,0,26.05-.3,5.59-1.32,10.44-7.8,10.92-7.71.57-9.82-3.11-10.22-10.2v-26.77ZM431.28,206.64h7.56l3.51-10.53h16.01s3.4,10.53,3.4,10.53h8.28l.33-.56-14.48-42.66c-3.05.3-6.65-.34-9.62,0-.34.04-.63.02-.81.39l-14.18,42.82ZM488.4,199.92v-36.12l-.36-.36h-7.68l-.36.36v42.48l.36.36h26.28v-6.72h-18.24ZM65.04,173.04l-14.28,8.88c-.47.09-.3-.09-.41-.31-.41-.8-.51-1.64-1.05-2.55-3.73-6.38-13.83-5.5-16.71,1.25-.22.51-1.15,3.53-1.15,3.89v14.52h33.6v-6.12l-.36-.36h-13.08v-3.72l13.44-8.52v-6.96ZM65.04,224.4h-12.12c-.18,0-.54-.58-.59-.85-.43-2.24.21-5.21-.31-7.85-2.14-10.87-16.94-11.39-19.97-1.14-.09.31-.6,2.16-.6,2.28v13.68l.36.36h32.88l.36-.36v-6.12Z"/>
  <path class="cls-11" d="M250.08,163.44l10.92,28.56,11.28-28.56h10.32l.36.36v42.48l-.36.36h-7.68l-.36-.36v-30.6l-12.26,30.58c-.52.73-1.93.25-2.75.4l-12.83-30.98v30.6l-.36.36h-6.96l-.36-.36v-42.48l.36-.36h10.68Z"/>
  <path class="cls-6" d="M519.84,105.48c.1-.37.7-.56,1.07-.61,2.96-.4,6.87.29,9.93.05l11.2,28.76,11.04-28.8h10.32l.36.36v42.84h-8.04l-.36-.36v-30.6l-11.95,30.17c-.49,1.19-2.13.83-3.17.67l-12.72-30.84v30.6l-.36.36h-6.96l-.36-.36v-42.24Z"/>
  <polygon class="cls-15" points="351 163.44 368.88 193.68 368.88 163.8 369.24 163.44 376.2 163.44 376.56 163.8 376.56 206.64 368.04 206.64 349.5 175.03 348.96 174.72 348.96 206.64 341.52 206.64 341.52 163.44 351 163.44"/>
  <path class="cls-6" d="M200.16,135.12v-29.88l.36-.36h7.08v43.2h-8.28l-19.08-31.92v31.92h-7.32l-.36-.36v-42.24c0-.08.32-.36.24-.6h9.48l17.88,30.24Z"/>
  <path class="cls-6" d="M269.88,104.88c.35.1,1.54,2.23,1.84,2.72,5.43,8.85,10.18,18.51,15.74,27.21.15.24-.03.42.54.31v-29.88l.36-.36h6.72l.36.36v42.84h-8.64c-6.02-10.26-11.75-20.74-17.96-30.88-.25-.41-.45-1.19-1-1.04v31.92h-7.44v-42.84l.36-.36h9.12Z"/>
  <path class="cls-9" d="M385.44,105.24c.21-.34.48-.33.83-.37,3.55-.42,10.46-.2,14.18,0,9.31.5,16.43,4.29,15.47,14.77-.52,5.6-4.05,7.92-8.78,9.7-.25.1-.41-.12-.34.38l11.52,18.36h-8.88l-11.16-17.28h-4.68v17.28h-8.16v-42.84ZM393.6,124.8h8.28c.38,0,2.47-.7,2.92-.92,3.84-1.87,4.19-8.93.72-11.13-.44-.28-2.53-1.15-2.93-1.15h-9v13.2Z"/>
  <path class="cls-11" d="M616.68,104.88h7.68l.36.36v28.08c0,1.62.91,4.7,1.92,6,2.84,3.65,11.18,3.5,13.92-.24,1.02-1.39,1.92-4.79,1.92-6.48v-27.36l.36-.36h7.68l.36.36v28.56c0,1.46-1.14,5.2-1.8,6.6-6.38,13.5-32.76,10.48-32.76-6.12v-29.04l.36-.36Z"/>
  <path class="cls-9" d="M397.44,163.44v26.77c.39,7.09,2.5,10.77,10.21,10.2,6.48-.48,7.5-5.33,7.8-10.92.45-8.54-.36-17.47,0-26.05h8.16v29.16c0,16.9-27.61,20.21-33.16,5.32-.39-1.05-1.16-3.83-1.16-4.84v-29.64h8.16Z"/>
  <path class="cls-9" d="M685.2,117.12c-.84-5.45-5.15-6.85-10.14-6.18-5.88.79-7.46,7.96-1.51,10.26,7.15,2.77,18.14.75,20.18,11.02,3.81,19.18-27.46,22.25-32.17,6.73-.25-.84-.87-3.25-.83-3.99.01-.22.2-.58.35-.58h7.56c.63,4.54,2.72,7.54,7.55,7.93s10.3-1.3,9.73-7.33c-.29-2.99-2.62-3.93-5.18-4.66-9.25-2.65-20.15-1.67-18.55-15.47,1.48-12.83,26.26-14.85,30.15-.68.2.74.71,2.43.19,2.93h-7.32Z"/>
  <path class="cls-9" d="M464.64,119.52h-8.4c-.44-8.28-10.2-10.58-16.4-6.68-7.82,4.93-7.97,22.48-.05,27.32,4.91,3.01,13.37,2.32,16.16-3.29.64-1.28.68-2.7,1.36-3.92h7.8c-.35,7.29-5.37,13.29-12.43,15.05-10.09,2.52-21.72-.83-25.67-11.15-3.47-9.04-1.98-21.33,5.7-27.79,10.55-8.87,31.23-5.38,31.92,10.44Z"/>
  <path class="cls-9" d="M331.68,206.64h-8.28l-3.63-10.58-16.15.04-3.14,10.54h-7.68l13.96-42.8.19-.29c.42-.28,8.96-.25,9.98-.12.26.03.53-.01.71.25l14.04,42.96ZM317.76,190.08l-5.76-19.2c-.56.38-.81,1.35-1.03,1.97-1.57,4.46-4.17,11.58-5.1,16.02-.08.41-.16.8-.11,1.21h12Z"/>
  <path class="cls-9" d="M431.28,206.64l14.18-42.82c.17-.37.46-.35.81-.39,2.97-.34,6.58.29,9.62,0l14.48,42.66-.33.56h-8.28l-3.4-10.52h-16.01s-3.51,10.52-3.51,10.52h-7.56ZM444.48,190.08h11.64c.07,0,.43-.36.32-.55l-5.85-18.65-6.12,19.2Z"/>
  <path class="cls-9" d="M162.72,148.08h-8.4l-3.35-10.45-16.12.04-3.45,10.42h-7.56l14.28-42.96c.18-.26.45-.22.71-.25.98-.12,9.3-.09,9.74.13l.49.71c4.01,13.33,9.13,26.36,13.12,39.68.26.87.59,1.76.55,2.69ZM137.04,131.52h12l-5.88-18.96c-.49-.1-.34.19-.47.48-.45,1.01-.8,2.34-1.15,3.42-1.36,4.09-3.54,9.8-4.39,13.85-.08.41-.16.8-.11,1.21Z"/>
  <path class="cls-9" d="M471.36,148.08l14.04-42.96,10.33-.25,14.51,43.22h-8.28l-3.71-10.45-15.94-.12-3.27,10.57h-7.68ZM484.32,131.52h12l-6.12-19.2-5.88,19.2Z"/>
  <path class="cls-9" d="M373.92,111.6h-18.72v11.28h14.52s.42.37.48.48c.45.97.08,4.77-.12,6h-14.88v12.24h19.68v6.48h-27.72l-.36-.36v-42.24s.56-.6.6-.6h26.16l.36.36v6.36Z"/>
  <path class="cls-15" d="M585.12,132v15.72l-.36.36h-8.04v-42.84c.21-.34.48-.33.83-.37,4.51-.53,16.06-.26,20.29,1.09,7.15,2.27,10.07,8.83,8.57,16.01-2.09,9.95-13.04,10.3-21.29,10.03ZM585.12,125.76h7.32c.97,0,3.55-1.23,4.29-1.95,2.38-2.32,2.49-7.85.25-10.28-.74-.8-3.03-1.93-4.07-1.93h-7.8v14.16Z"/>
  <path class="cls-7" d="M49.2,29.04c.22-.35,7.35-.43,7.86.06l13.06,22.58.68.4v-23.04c.24.08.52-.24.6-.24h4.8l.36.36v33.12l-.36.36h-6l-14.65-24.71-.59-.25c-.1.28.24.54.24.6v23.76c0,.08-.32.36-.24.6h-5.4l-.36-.36V29.04Z"/>
  <path class="cls-13" d="M337.2,111.6h-11.76v36.12l-.36.36h-8.04v-36.48h-11.64l-.36-.36v-5.76s.56-.6.6-.6h31.2l.36.36v6.36Z"/>
  <path class="cls-1" d="M65.04,173.04v6.96l-13.44,8.52v3.72h13.08l.36.36v6.12H31.44v-14.52c0-.36.93-3.38,1.15-3.89,2.88-6.75,12.98-7.62,16.71-1.25.53.91.64,1.75,1.05,2.55.11.22-.06.39.41.31l14.28-8.88ZM36.48,192.48h10.2l.36-.36v-5.52c0-.9-.67-2.82-1.2-3.6-1.73-2.55-6.56-2.79-8.36-.2-1.04,1.49-1.18,3.67-1.25,5.47-.02.65-.06,4.01.25,4.21Z"/>
  <polygon class="cls-10" points="488.4 199.92 506.64 199.92 506.64 206.64 480.36 206.64 480 206.28 480 163.8 480.36 163.44 488.04 163.44 488.4 163.8 488.4 199.92"/>
  <path class="cls-18" d="M205.2,29.04v22.2c0,.65.52,2.37.78,3.06,1.05,2.82,3.7,3.68,6.55,3.55,2.39-.11,4.59-.95,5.68-3.2.27-.57.91-2.85.91-3.41v-22.2c.24.08.52-.24.6-.24h5.52l.36.36v23.28c0,.9-1.4,4.34-1.96,5.24-4.44,7.15-18.45,7.34-22.91.2-1-1.61-2.01-4.81-2.01-6.63v-22.2c.63-.38,6.48-.33,6.48,0Z"/>
  <path class="cls-14" d="M91.32,51.84c.72.21.95,2.75,1.46,3.58,2.67,4.31,12.63,3.38,12.56-2.23-.04-2.82-1.55-3.72-3.96-4.45-4.96-1.5-12.25-.94-14.33-7.03-4.77-13.95,18.9-18.45,22.98-6.18.14.42.95,2.87.25,2.87h-5.28c-.82-.69-.78-1.82-1.36-2.72-2.27-3.51-11.06-3.02-10.98,2.1.08,4.81,6.79,4.45,10.3,5.3,4.58,1.11,8.16,3.28,8.63,8.41,1.26,13.71-22.09,15.95-25.61,3.53-.16-.57-.79-3.18.06-3.18,1.13,0,4.49-.23,5.28,0Z"/>
  <path class="cls-18" d="M65.04,136.8v6.36l-8.05,2.75v12.5s8.05,2.64,8.05,2.64v6l-33.62-11.39.05-8.02,33.57-10.83ZM52.32,147.36l-15.36,4.68.17.6,14.59,4.58c.2.02.6-.25.6-.37v-9.48Z"/>
  <path class="cls-1" d="M273.6,34.08v8.88h11.4l.36.36v4.32l-.36.36h-11.4v9.36h15c.94,0,.66,4.48.36,5.28h-21.48l-.36-.36V29.04c.24.08.52-.24.6-.24h20.16l.36.36v4.56l-.36.36h-14.28Z"/>
  <path class="cls-1" d="M65.04,224.4v6.12l-.36.36H31.8l-.36-.36v-13.68c0-.12.51-1.97.6-2.28,3.03-10.25,17.83-9.73,19.97,1.14.52,2.64-.12,5.61.31,7.85.05.26.41.85.59.85h12.12ZM36.24,219.96c-.09,1.35.07,2.73,0,4.08l.36.36h10.8l.36-.36v-4.56c0-.24-.27-1.98-.35-2.29-1.28-4.82-9.85-4.98-10.87.18-.12.59-.25,1.97-.29,2.59Z"/>
  <polygon class="cls-10" points="247.2 148.08 238.8 148.08 238.8 105.24 239.16 104.88 246.84 104.88 247.2 105.24 247.2 148.08"/>
  <polygon class="cls-1" points="36.48 87.36 64.68 87.36 65.04 87.72 65.04 93.72 64.68 94.08 36.84 94.08 36.48 94.44 36.48 103.2 31.44 103.2 31.44 78.36 31.8 78 36.12 78 36.48 78.36 36.48 87.36"/>
  <path class="cls-14" d="M142.32,29.04v4.68l-.36.36h-8.64l-.36.36v27.84l-.36.36h-6.12v-28.2l-.36-.36h-8.64l-.36-.36v-4.56l.36-.36h24.24c.08,0,.36.32.6.24Z"/>
  <path class="cls-14" d="M190.8,29.04v4.68l-.36.36h-8.64l-.36.36v27.84l-.36.36h-6.12v-28.56h-9l-.36-.36v-4.56l.36-.36h24.24c.08,0,.36.32.6.24Z"/>
  <polygon class="cls-10" points="258.96 29.04 258.96 33.72 258.6 34.08 249.6 34.08 249.6 62.28 249.24 62.64 243.48 62.64 243.12 62.28 243.12 34.44 242.76 34.08 234.12 34.08 233.76 33.72 233.76 29.04 258.96 29.04"/>
  <path class="cls-8" d="M36.48,108.96v9l.36.36h28.2v6.48h-28.32c.08.24-.24.52-.24.6v8.76h-5.04v-25.2h5.04Z"/>
  <polygon class="cls-20" points="151.08 28.8 156.84 28.8 157.2 29.16 157.2 62.28 156.84 62.64 151.08 62.64 150.72 62.28 150.72 29.16 151.08 28.8"/>
  <polygon class="cls-1" points="32.04 28.8 37.8 28.8 38.16 29.16 38.16 62.28 37.8 62.64 32.04 62.64 31.68 62.28 31.68 29.16 32.04 28.8"/>
  <path class="cls-3" d="M393.6,124.8v-13.2h9c.39,0,2.48.87,2.93,1.15,3.47,2.2,3.12,9.26-.72,11.13-.45.22-2.55.92-2.92.92h-8.28Z"/>
  <path class="cls-2" d="M317.76,190.08h-12c-.05-.42.02-.81.11-1.21.93-4.44,3.53-11.56,5.1-16.02.22-.62.47-1.6,1.03-1.97l5.76,19.2Z"/>
  <path class="cls-2" d="M444.48,190.08l6.12-19.2,5.85,18.65c.1.19-.25.55-.32.55h-11.64Z"/>
  <path class="cls-17" d="M137.04,131.52c-.05-.42.02-.81.11-1.21.85-4.05,3.03-9.76,4.39-13.85.36-1.08.7-2.41,1.15-3.42.13-.29-.02-.58.47-.48l5.88,18.96h-12Z"/>
  <polygon class="cls-17" points="484.32 131.52 490.2 112.32 496.32 131.52 484.32 131.52"/>
  <path class="cls-16" d="M585.12,125.76v-14.16h7.8c1.03,0,3.33,1.13,4.07,1.93,2.23,2.43,2.13,7.96-.25,10.28-.74.72-3.32,1.95-4.29,1.95h-7.32Z"/>
  <path class="cls-12" d="M36.48,192.48c-.31-.2-.28-3.56-.25-4.21.07-1.8.21-3.98,1.25-5.47,1.81-2.59,6.63-2.36,8.36.2.53.78,1.2,2.7,1.2,3.6v5.52l-.36.36h-10.2Z"/>
  <path class="cls-4" d="M52.32,147.36v9.48c0,.12-.4.4-.6.37l-14.59-4.58-.17-.6,15.36-4.68ZM51.84,147.84l-13.2,3.96-.72.6,13.92,4.32v-8.88Z"/>
  <path class="cls-2" d="M36.24,219.96c.04-.61.18-2,.29-2.59,1.02-5.17,9.6-5,10.87-.18.08.31.35,2.04.35,2.29v4.56l-.36.36h-10.8l-.36-.36c.07-1.35-.09-2.73,0-4.08Z"/>
  <polygon class="cls-5" points="51.84 147.84 51.84 156.72 37.92 152.4 38.64 151.8 51.84 147.84"/>
</svg>